<svg width="18" height="19" viewBox="0 0 18 19" fill="none" xmlns="http://www.w3.org/2000/svg">
<path d="M5.82155 14.3804C6.72913 14.3804 7.46487 15.1161 7.46487 16.0237C7.46487 16.9312 6.72913 17.667 5.82155 17.667C4.91396 17.667 4.17822 16.9312 4.17822 16.0237C4.17822 15.1161 4.91396 14.3804 5.82155 14.3804Z" stroke="#1C274C" stroke-width="1.5"/>
<path d="M13.0972 14.3805C14.0047 14.3805 14.7405 15.1162 14.7405 16.0238C14.7405 16.9314 14.0047 17.6671 13.0972 17.6671C12.1896 17.6671 11.4539 16.9314 11.4539 16.0238C11.4539 15.1162 12.1896 14.3805 13.0972 14.3805Z" stroke="#1C274C" stroke-width="1.5"/>
<path d="M1 1.66711L1.21997 1.73553C2.31604 2.07644 2.86409 2.24689 3.17755 2.65269C3.49102 3.05849 3.49102 3.59751 3.49102 4.67555V6.70308C3.49102 8.89447 3.54427 9.6176 4.27387 10.2984C5.00347 10.9792 6.17775 10.9792 8.52632 10.9792H9.42106M12.9919 10.9792C14.3064 10.9792 14.9637 10.9792 15.4283 10.6442C15.8929 10.3093 16.0256 9.73985 16.291 8.60088L16.7118 6.79452C17.0041 5.49898 17.1502 4.85122 16.7764 4.42131C16.4026 3.9914 15.1253 3.9914 13.7064 3.9914H8.59874M3.49102 3.9914H5.21053" stroke="#1C274C" stroke-width="1.5" stroke-linecap="round"/>
</svg>
