<svg width="111" height="24" viewBox="0 0 111 24" fill="none" xmlns="http://www.w3.org/2000/svg">
<path d="M26.3115 0.0798271C26.1567 0.103665 26.0079 0.672746 25.7088 0.969205C25.4901 1.18316 25.2171 1.16978 25.072 1.43429C25.017 1.53311 25.0348 1.70179 24.9723 1.86375C24.8503 2.18768 24.4203 2.21663 24.4203 2.56957C24.4188 2.95072 24.7789 3.02351 25.0906 3.29395C25.3339 3.51164 25.3577 3.66171 25.6523 3.76719C25.9038 3.85268 26.278 3.57329 26.615 3.6736C26.8918 3.7561 27.1566 3.81551 27.2191 4.09933C27.2741 4.36086 27.2154 4.76648 26.8799 4.71972C26.7668 4.70707 26.2765 4.54212 25.6739 4.60602C24.947 4.68852 24.1175 4.92546 24.0364 5.73463C23.9918 6.18708 24.552 6.72053 25.0929 6.61206C25.467 6.53847 25.29 6.09796 25.4939 5.88395C25.7609 5.60984 27.2741 6.8409 28.681 6.8409C29.2732 6.8409 29.7136 6.69157 30.1511 6.2339C30.192 6.19897 30.2419 6.12393 30.3051 6.11945C30.3646 6.12393 30.4688 6.1826 30.503 6.20788C31.6361 7.11725 32.4924 8.94129 36.6564 8.96283C37.2419 8.96576 37.9092 9.24516 38.4538 9.74144C38.9396 10.1902 39.2238 10.8878 39.4998 11.5959C39.9164 12.6584 40.6634 13.6918 41.7957 14.8419C41.8575 14.9036 42.7896 15.6273 42.864 15.6815C42.8759 15.6889 42.9444 15.8524 42.9206 15.9437C42.8931 16.6332 42.7926 18.6385 44.2895 18.7291C44.6555 18.7477 44.5595 18.4906 44.5595 18.3138C44.5588 17.9646 44.4948 17.6176 44.6794 17.2603C44.9315 16.7685 44.1444 16.5418 44.1675 15.4786C44.1838 14.6859 43.5172 14.8211 43.1787 14.2171C42.9838 13.8671 42.8105 13.6814 42.8231 13.2534C42.899 10.8448 42.3098 9.26222 42.0159 8.87366C41.7868 8.58019 41.5971 8.46356 41.8068 8.32757C43.056 7.50362 43.3395 6.73685 43.3395 6.73685C44.0038 5.17738 44.6012 3.75306 45.4248 3.12606C45.5907 2.99674 46.0163 2.67954 46.2774 2.55469C47.0459 2.19285 47.4506 1.97373 47.6738 1.75672C48.0272 1.41275 48.3062 0.695786 47.9676 0.261147C47.5466 -0.275294 46.8182 0.150437 46.4969 0.340607C44.2002 1.70179 43.8617 4.10301 43.0664 5.48201C42.4318 6.58379 41.3999 7.39291 40.4774 7.45904C39.7855 7.51029 39.0401 7.37062 38.2976 7.04521C36.492 6.2547 35.5039 5.23386 35.2711 5.05335C34.786 4.67961 31.02 0.987763 27.969 0.836945C27.969 0.836945 27.5904 0.0798805 27.4951 0.0672386C27.2719 0.0389794 27.0436 0.519692 26.8799 0.575471C26.7259 0.626672 26.467 0.0545509 26.3115 0.0798271ZM12.8799 22.1141C12.5927 22.1074 12.3487 21.8719 12.3487 21.5807L12.3494 12.0766H9.21286V22.5532C9.21286 23.0666 9.62944 23.4856 10.1405 23.4856H15.6229C16.1377 23.4856 16.5491 23.0666 16.5491 22.5532V12.0766H13.4155L13.4125 21.5807C13.4125 21.8719 13.1685 22.1074 12.8799 22.1141ZM23.3817 12.0766H18.6344C18.0728 12.0766 17.6152 12.5328 17.6152 13.0997V23.4856H20.7547V13.9586C20.7569 13.6666 20.9935 13.4355 21.2852 13.4355C21.5783 13.4355 21.8134 13.6614 21.8201 13.9504V23.4856H24.947V13.9503C24.9507 13.6613 25.1858 13.4355 25.4782 13.4355C25.7683 13.4355 26.0079 13.6666 26.0101 13.9585V23.4856H29.1497V13.0997C29.1497 12.5328 28.6914 12.0766 28.1297 12.0766H23.3817ZM5.01535 13.9786C5.01759 13.6613 4.75871 13.4355 4.48417 13.4355H3.95149V19.2061H4.48417C4.76095 19.2061 5.01765 18.9862 5.01535 18.6705V13.9786ZM7.12006 20.6185H3.95149V23.4856H0.816406V12.0766H7.14019C7.7063 12.0766 8.14819 12.5357 8.14819 13.1041V19.591C8.14819 20.1601 7.68921 20.6185 7.12006 20.6185ZM39.9083 20.9342C39.2781 20.9342 38.7491 21.4781 38.7491 22.1371C38.7491 22.7984 39.2781 23.3378 39.9283 23.3378C40.5734 23.3378 41.0956 22.7984 41.0956 22.1371C41.0956 21.4766 40.5734 20.9342 39.9283 20.9342H39.9083ZM41.3203 22.1334C41.3203 22.9083 40.6983 23.5384 39.9283 23.5384C39.1501 23.5384 38.5252 22.9128 38.5252 22.1334C38.5252 21.3689 39.1501 20.7299 39.9053 20.7299C40.6983 20.7299 41.3203 21.3496 41.3203 22.1334Z" fill="black"/>
<path d="M39.7832 22.0422C40.0012 22.0422 40.1158 21.9649 40.1158 21.8102C40.1158 21.6725 40.0049 21.6018 39.7929 21.6018H39.7304V22.0422H39.7832ZM40.586 22.9454H40.2117L39.7304 22.3049V22.9454H39.4246V21.3258H39.746C40.1827 21.3258 40.4149 21.491 40.4149 21.8064C40.4149 22.0169 40.278 22.2037 40.0867 22.2595L40.0644 22.2677L40.586 22.9454ZM34.4133 19.2025V13.942C34.4058 13.651 34.1715 13.4279 33.8791 13.4279C33.5897 13.4279 33.3501 13.6599 33.3479 13.9501V19.2025H34.4133ZM34.4133 23.4856V20.6176H33.3479V23.4856H30.2144V13.0856C30.2144 12.5179 30.6718 12.0612 31.2335 12.0612H36.5276C37.0908 12.0612 37.5483 12.5179 37.5483 13.0856V23.4855L34.4133 23.4856Z" fill="black"/>
<path d="M65.5443 22.9971C64.1492 22.363 62.9636 21.2109 62.7063 20.2392C62.4046 19.0987 62.7979 16.8968 63.6057 15.2083C64.3677 13.6148 66.5142 10.4231 67.8636 8.87672L68.4987 8.149L67.9864 9.53792C67.274 11.4696 67.3024 13.537 68.0558 14.597C69.1829 16.1826 71.4184 17.0294 73.4364 16.6348C74.9231 16.3453 89.3434 12.633 89.8659 12.4067C90.2303 12.2489 89.806 12.1812 88.3944 12.1699H86.4112L86.3913 10.8964C86.3794 10.1957 86.2946 9.15526 86.1994 8.58428L86.0265 7.54644L85.1437 9.85818L84.2608 12.1699H82.7765C81.9602 12.1699 81.2923 12.0759 81.2923 11.9632C81.2923 11.8504 82.1098 9.69354 83.109 7.17168C84.1083 4.6502 85.1529 2.01369 85.4306 1.31302L85.9354 0.0395017H87.4524C88.2868 0.0395017 88.9695 0.0770922 88.9695 0.114681C88.9695 0.156028 88.6824 0.884882 88.3314 1.73365C87.9805 2.58279 87.7237 3.30638 87.7609 3.34171C87.7966 3.3793 88.4596 2.65233 89.2308 1.73139L90.6329 0.0567927H95.3306C99.5253 0.0567927 100.012 0.0943832 99.8719 0.434566C99.7858 0.648825 99.6459 1.08373 99.561 1.40474C99.4183 1.94415 99.2831 1.98888 97.805 1.98888H96.2037L95.6919 3.26278L95.1802 4.5363L96.5533 4.60772C97.3085 4.64907 97.9264 4.78815 97.9264 4.91971C97.9264 5.05127 97.7623 5.53091 97.5613 5.98687C97.2123 6.77887 97.1308 6.81872 95.7201 6.88863L94.2443 6.96381L93.6543 8.41062C93.3295 9.20638 93.0642 9.889 93.0642 9.92697C93.0642 9.96456 93.8668 9.99463 94.8476 9.99463C96.3276 9.99463 96.6058 10.0585 96.4836 10.3592C96.4027 10.5585 96.4519 10.7239 96.595 10.7239C96.7373 10.7239 99.8206 9.95967 103.447 9.02558C109.663 7.42428 111.381 7.09538 109.406 7.88512C108.933 8.07307 100.946 11.3422 91.6566 15.1477C82.3671 18.9533 73.903 22.3641 72.8473 22.7272C71.5923 23.1591 70.2195 23.4264 68.8807 23.4993C67.0967 23.597 66.6676 23.5369 65.5435 23.0246L65.5443 22.9971ZM91.7578 5.50497C92.7582 2.98311 93.5714 0.854433 93.5649 0.773995C93.557 0.695057 92.5816 1.61073 91.3942 2.81133L89.2352 4.99489L89.2337 7.05703C89.2316 9.59581 89.4763 11.2482 89.7517 10.5585C89.8548 10.2991 90.7573 8.02645 91.7578 5.50497ZM69.5332 10.8896C69.8167 10.1829 70.8918 7.47577 71.9223 4.87385L73.7959 0.14287L75.4671 0.0714512L77.1383 3.05176e-05L77.0482 1.04125C76.8322 3.53981 76.741 5.11555 76.8123 5.11555C76.8548 5.11555 77.3331 3.96983 77.8757 2.56963L78.8622 0.0237126L80.3337 0.0210814C81.1429 0.0210814 81.8051 0.111296 81.8051 0.227822C81.8051 0.34059 80.9876 2.49784 79.9883 5.01932C78.9891 7.54118 77.9444 10.1773 77.6668 10.878L77.162 12.1519H75.4894H73.8168L73.969 9.66497C74.0527 8.2971 74.0642 7.28745 73.9968 7.42089C73.9274 7.55245 73.486 8.64593 73.0164 9.8469L72.1624 12.0305L70.5911 12.1019L69.0199 12.1733L69.5354 10.8881L69.5332 10.8896ZM77.7105 11.9455C77.7105 11.8327 78.528 9.67549 79.5272 7.15363C80.5265 4.63215 81.5712 1.99564 81.8488 1.29536L82.3536 0.0214567H83.892C84.7381 0.0214567 85.392 0.115429 85.3451 0.231956C85.2983 0.348482 84.2233 3.07596 82.9566 6.29472L80.6534 12.1466L79.1819 12.1489C78.3726 12.1515 77.7105 12.0583 77.7105 11.9455Z" fill="black"/>
</svg>
