<svg width="122" height="40" viewBox="0 0 122 40" fill="none" xmlns="http://www.w3.org/2000/svg">
<path d="M55.08 29.14C54.1467 29.14 53.3067 28.98 52.56 28.66C51.8133 28.3267 51.2267 27.86 50.8 27.26C50.3733 26.66 50.16 25.96 50.16 25.16H52.6C52.6533 25.76 52.8867 26.2533 53.3 26.64C53.7267 27.0267 54.32 27.22 55.08 27.22C55.8667 27.22 56.48 27.0333 56.92 26.66C57.36 26.2733 57.58 25.78 57.58 25.18C57.58 24.7133 57.44 24.3333 57.16 24.04C56.8933 23.7467 56.5533 23.52 56.14 23.36C55.74 23.2 55.18 23.0267 54.46 22.84C53.5533 22.6 52.8133 22.36 52.24 22.12C51.68 21.8667 51.2 21.48 50.8 20.96C50.4 20.44 50.2 19.7467 50.2 18.88C50.2 18.08 50.4 17.38 50.8 16.78C51.2 16.18 51.76 15.72 52.48 15.4C53.2 15.08 54.0333 14.92 54.98 14.92C56.3267 14.92 57.4267 15.26 58.28 15.94C59.1467 16.6067 59.6267 17.5267 59.72 18.7H57.2C57.16 18.1933 56.92 17.76 56.48 17.4C56.04 17.04 55.46 16.86 54.74 16.86C54.0867 16.86 53.5533 17.0267 53.14 17.36C52.7267 17.6933 52.52 18.1733 52.52 18.8C52.52 19.2267 52.6467 19.58 52.9 19.86C53.1667 20.1267 53.5 20.34 53.9 20.5C54.3 20.66 54.8467 20.8333 55.54 21.02C56.46 21.2733 57.2067 21.5267 57.78 21.78C58.3667 22.0333 58.86 22.4267 59.26 22.96C59.6733 23.48 59.88 24.18 59.88 25.06C59.88 25.7667 59.6867 26.4333 59.3 27.06C58.9267 27.6867 58.3733 28.1933 57.64 28.58C56.92 28.9533 56.0667 29.14 55.08 29.14ZM68.1303 17.8C68.997 17.8 69.7703 17.98 70.4503 18.34C71.1436 18.7 71.6836 19.2333 72.0703 19.94C72.457 20.6467 72.6503 21.5 72.6503 22.5V29H70.3903V22.84C70.3903 21.8533 70.1436 21.1 69.6503 20.58C69.157 20.0467 68.4836 19.78 67.6303 19.78C66.777 19.78 66.097 20.0467 65.5903 20.58C65.097 21.1 64.8503 21.8533 64.8503 22.84V29H62.5703V17.98H64.8503V19.24C65.2236 18.7867 65.697 18.4333 66.2703 18.18C66.857 17.9267 67.477 17.8 68.1303 17.8ZM76.7186 16.52C76.3053 16.52 75.9586 16.38 75.6786 16.1C75.3986 15.82 75.2586 15.4733 75.2586 15.06C75.2586 14.6467 75.3986 14.3 75.6786 14.02C75.9586 13.74 76.3053 13.6 76.7186 13.6C77.1186 13.6 77.4586 13.74 77.7386 14.02C78.0186 14.3 78.1586 14.6467 78.1586 15.06C78.1586 15.4733 78.0186 15.82 77.7386 16.1C77.4586 16.38 77.1186 16.52 76.7186 16.52ZM77.8386 17.98V29H75.5586V17.98H77.8386ZM85.192 23.5L90.272 29H87.192L83.112 24.26V29H80.832V14.2H83.112V22.8L87.112 17.98H90.272L85.192 23.5ZM102.006 23.22C102.006 23.6333 101.98 24.0067 101.926 24.34H93.5063C93.5729 25.22 93.8996 25.9267 94.4863 26.46C95.0729 26.9933 95.7929 27.26 96.6463 27.26C97.8729 27.26 98.7396 26.7467 99.2463 25.72H101.706C101.373 26.7333 100.766 27.5667 99.8863 28.22C99.0196 28.86 97.9396 29.18 96.6463 29.18C95.5929 29.18 94.6463 28.9467 93.8063 28.48C92.9796 28 92.3263 27.3333 91.8463 26.48C91.3796 25.6133 91.1463 24.6133 91.1463 23.48C91.1463 22.3467 91.3729 21.3533 91.8263 20.5C92.2929 19.6333 92.9396 18.9667 93.7663 18.5C94.6063 18.0333 95.5663 17.8 96.6463 17.8C97.6863 17.8 98.6129 18.0267 99.4263 18.48C100.24 18.9333 100.873 19.5733 101.326 20.4C101.78 21.2133 102.006 22.1533 102.006 23.22ZM99.6263 22.5C99.6129 21.66 99.3129 20.9867 98.7263 20.48C98.1396 19.9733 97.4129 19.72 96.5463 19.72C95.7596 19.72 95.0863 19.9733 94.5263 20.48C93.9663 20.9733 93.6329 21.6467 93.5263 22.5H99.6263ZM106.53 19.58C106.863 19.02 107.303 18.5867 107.85 18.28C108.41 17.96 109.07 17.8 109.83 17.8V20.16H109.25C108.357 20.16 107.677 20.3867 107.21 20.84C106.757 21.2933 106.53 22.08 106.53 23.2V29H104.25V17.98H106.53V19.58ZM115.926 29.18C115.059 29.18 114.279 29.0267 113.586 28.72C112.906 28.4 112.366 27.9733 111.966 27.44C111.566 26.8933 111.352 26.2867 111.326 25.62H113.686C113.726 26.0867 113.946 26.48 114.346 26.8C114.759 27.1067 115.272 27.26 115.886 27.26C116.526 27.26 117.019 27.14 117.366 26.9C117.726 26.6467 117.906 26.3267 117.906 25.94C117.906 25.5267 117.706 25.22 117.306 25.02C116.919 24.82 116.299 24.6 115.446 24.36C114.619 24.1333 113.946 23.9133 113.426 23.7C112.906 23.4867 112.452 23.16 112.066 22.72C111.692 22.28 111.506 21.7 111.506 20.98C111.506 20.3933 111.679 19.86 112.026 19.38C112.372 18.8867 112.866 18.5 113.506 18.22C114.159 17.94 114.906 17.8 115.746 17.8C116.999 17.8 118.006 18.12 118.766 18.76C119.539 19.3867 119.952 20.2467 120.006 21.34H117.726C117.686 20.8467 117.486 20.4533 117.126 20.16C116.766 19.8667 116.279 19.72 115.666 19.72C115.066 19.72 114.606 19.8333 114.286 20.06C113.966 20.2867 113.806 20.5867 113.806 20.96C113.806 21.2533 113.912 21.5 114.126 21.7C114.339 21.9 114.599 22.06 114.906 22.18C115.212 22.2867 115.666 22.4267 116.266 22.6C117.066 22.8133 117.719 23.0333 118.226 23.26C118.746 23.4733 119.192 23.7933 119.566 24.22C119.939 24.6467 120.132 25.2133 120.146 25.92C120.146 26.5467 119.972 27.1067 119.626 27.6C119.279 28.0933 118.786 28.48 118.146 28.76C117.519 29.04 116.779 29.18 115.926 29.18Z" fill="#D82A34"/>
<path d="M0 8C0 3.58172 3.58172 0 8 0H40V40H0V8Z" fill="#D82A34"/>
</svg>
